<svg width="40" height="40" viewBox="0 0 40 40" fill="none" xmlns="http://www.w3.org/2000/svg">
<path opacity="0.4" d="M34.3668 14.0833C32.6168 6.38332 25.9002 2.91666 20.0002 2.91666C20.0002 2.91666 20.0002 2.91666 19.9835 2.91666C14.1002 2.91666 7.36683 6.36666 5.61683 14.0667C3.66683 22.6667 8.93349 29.95 13.7002 34.5333C15.4668 36.2333 17.7335 37.0833 20.0002 37.0833C22.2668 37.0833 24.5335 36.2333 26.2835 34.5333C31.0502 29.95 36.3168 22.6833 34.3668 14.0833Z" fill="#292D32"/>
<path d="M19.9994 22.4334C22.8989 22.4334 25.2494 20.0829 25.2494 17.1834C25.2494 14.2839 22.8989 11.9334 19.9994 11.9334C17.0999 11.9334 14.7494 14.2839 14.7494 17.1834C14.7494 20.0829 17.0999 22.4334 19.9994 22.4334Z" fill="#292D32"/>
</svg>
